<svg id="visual" viewBox="0 0 1500 750" width="1500" height="750" xmlns="http://www.w3.org/2000/svg" xmlns:xlink="http://www.w3.org/1999/xlink" version="1.1"><path d="M0 234L188 234L188 196L375 196L375 151L563 151L563 226L750 226L750 144L938 144L938 196L1125 196L1125 189L1313 189L1313 166L1500 166L1500 174L1500 0L1500 0L1313 0L1313 0L1125 0L1125 0L938 0L938 0L750 0L750 0L563 0L563 0L375 0L375 0L188 0L188 0L0 0Z" fill="#cccccc"></path><path d="M0 406L188 406L188 354L375 354L375 406L563 406L563 391L750 391L750 369L938 369L938 399L1125 399L1125 384L1313 384L1313 399L1500 399L1500 346L1500 172L1500 164L1313 164L1313 187L1125 187L1125 194L938 194L938 142L750 142L750 224L563 224L563 149L375 149L375 194L188 194L188 232L0 232Z" fill="#d4d4d4"></path><path d="M0 526L188 526L188 489L375 489L375 489L563 489L563 519L750 519L750 474L938 474L938 541L1125 541L1125 496L1313 496L1313 534L1500 534L1500 489L1500 344L1500 397L1313 397L1313 382L1125 382L1125 397L938 397L938 367L750 367L750 389L563 389L563 404L375 404L375 352L188 352L188 404L0 404Z" fill="#dcdcdc"></path><path d="M0 601L188 601L188 579L375 579L375 556L563 556L563 594L750 594L750 564L938 564L938 616L1125 616L1125 586L1313 586L1313 609L1500 609L1500 571L1500 487L1500 532L1313 532L1313 494L1125 494L1125 539L938 539L938 472L750 472L750 517L563 517L563 487L375 487L375 487L188 487L188 524L0 524Z" fill="#e4e4e4"></path><path d="M0 669L188 669L188 684L375 684L375 661L563 661L563 691L750 691L750 654L938 654L938 691L1125 691L1125 684L1313 684L1313 684L1500 684L1500 661L1500 569L1500 607L1313 607L1313 584L1125 584L1125 614L938 614L938 562L750 562L750 592L563 592L563 554L375 554L375 577L188 577L188 599L0 599Z" fill="#ececec"></path><path d="M0 751L188 751L188 751L375 751L375 751L563 751L563 751L750 751L750 751L938 751L938 751L1125 751L1125 751L1313 751L1313 751L1500 751L1500 751L1500 659L1500 682L1313 682L1313 682L1125 682L1125 689L938 689L938 652L750 652L750 689L563 689L563 659L375 659L375 682L188 682L188 667L0 667Z" fill="#f4f4f4"></path></svg>