<!--?xml version="1.0" standalone="no"?-->
              <svg id="sw-js-blob-svg" viewBox="0 0 100 100" xmlns="http://www.w3.org/2000/svg" version="1.1">
                    <defs> 
                        <linearGradient id="sw-gradient" x1="0" x2="1" y1="1" y2="0">
                            <stop id="stop1" stop-color="rgba(2, 114, 188, 1)" offset="0%"></stop>
                            <stop id="stop2" stop-color="rgba(2, 114, 188, 1)" offset="100%"></stop>
                        </linearGradient>
                    </defs>
                <path fill="url(#sw-gradient)" d="M24.5,-26.9C32.5,-22.5,40.2,-15.5,40.5,-8C40.9,-0.5,33.8,7.5,28.3,15.5C22.7,23.4,18.5,31.4,11.9,34.6C5.4,37.8,-3.6,36.1,-11.6,32.8C-19.7,29.5,-26.8,24.6,-32.6,17.4C-38.4,10.3,-42.9,1,-41.5,-7.4C-40.1,-15.7,-32.8,-23.1,-24.9,-27.5C-17,-31.9,-8.5,-33.3,-0.1,-33.1C8.3,-32.9,16.5,-31.2,24.5,-26.9Z" width="100%" height="100%" transform="translate(50 50)" stroke-width="0" style="transition: all 0.3s ease 0s;"></path>
              </svg>